# Blender v3.1.2 OBJ File: ''
# www.blender.org
mtllib propeller.mtl
o Propeller
v 0.000000 -0.194065 4.297745
v 0.188382 -0.330932 3.975764
v 0.232853 -0.194065 3.975764
v 0.065120 -0.394484 4.006351
v 0.071955 -0.415521 3.975764
v 0.060925 -0.381572 4.063144
v -0.188382 -0.330932 3.975764
v -0.071956 -0.415521 3.975764
v -0.065120 -0.394484 4.006351
v -0.060925 -0.381572 4.063144
v -0.232853 -0.194065 3.975764
v -0.188382 -0.057197 3.975764
v -0.065120 0.006354 4.006351
v -0.071956 0.027392 3.975764
v -0.060925 -0.006558 4.063144
v 0.188382 -0.057197 3.975764
v 0.071955 0.027392 3.975764
v 0.065120 0.006354 4.006351
v 0.060925 -0.006558 4.063144
v -0.060925 0.080288 4.063144
v -0.065120 0.080288 4.006351
v 0.065120 0.080288 4.006351
v 0.060925 0.080288 4.063144
v 0.060925 -0.467992 4.063144
v 0.065120 -0.467992 4.006351
v -0.065120 -0.467992 4.006351
v -0.060925 -0.467992 4.063144
v -0.025110 0.684973 4.014062
v -0.025110 0.684973 4.014062
v 0.019820 0.684973 4.035013
v 0.019820 0.684973 4.035013
v 0.029301 0.684973 4.018720
v -0.018723 0.684973 3.996326
v -0.018498 -1.072976 4.034720
v -0.027979 -1.072976 4.018427
v 0.020045 -1.072976 3.996033
v 0.026432 -1.072976 4.013769
v -0.036665 0.648072 4.008674
v -0.031074 0.648072 3.990567
v -0.036665 0.648072 4.008674
v 0.031375 0.648072 4.040401
v 0.031375 0.648072 4.040401
v 0.041652 0.648072 4.024479
v 0.037987 -1.036075 4.008380
v 0.032395 -1.036075 3.990273
v -0.040330 -1.036075 4.024186
v -0.030053 -1.036075 4.040108
vt 0.052885 0.942970
vt 0.064640 0.970624
vt 0.052885 0.970624
vt 0.873751 0.826864
vt 0.874846 0.829916
vt 0.862749 0.831880
vt 0.872868 0.822255
vt 0.863315 0.797794
vt 0.415349 0.969211
vt 0.403094 0.969115
vt 0.403711 0.965933
vt 0.403880 0.961243
vt 0.409589 0.935611
vt 0.979929 0.329163
vt 0.979929 0.356817
vt 0.968174 0.356817
vt 0.991684 0.356817
vt 0.899571 0.856988
vt 0.900667 0.860039
vt 0.888569 0.862004
vt 0.898689 0.852379
vt 0.889136 0.827918
vt 0.523506 0.847119
vt 0.511250 0.847023
vt 0.511867 0.843840
vt 0.512036 0.839151
vt 0.517746 0.813518
vt 0.041130 0.970624
vt 0.689478 0.931687
vt 0.682213 0.921687
vt 0.682213 0.909327
vt 0.689478 0.899327
vt 0.701234 0.895508
vt 0.712989 0.899327
vt 0.720254 0.909327
vt 0.720254 0.921687
vt 0.712989 0.931687
vt 0.701234 0.935506
vt 0.003127 0.987140
vt 0.003127 0.999500
vt 0.000500 0.998913
vt 0.000500 0.987727
vt 0.436363 0.922492
vt 0.441595 0.902342
vt 0.446828 0.922492
vt 0.666375 0.799706
vt 0.666375 0.812067
vt 0.663748 0.811479
vt 0.663748 0.800293
vt 0.575715 0.980558
vt 0.580947 0.960408
vt 0.586180 0.980558
vt 0.506786 0.996643
vt 0.501953 0.997934
vt 0.501675 0.990480
vt 0.506549 0.990298
vt 0.948522 0.400976
vt 0.953399 0.402085
vt 0.953399 0.408435
vt 0.948522 0.408435
vt 0.916967 0.937080
vt 0.928153 0.937080
vt 0.928153 0.943430
vt 0.916967 0.943430
vt 0.731706 0.954902
vt 0.721241 0.954902
vt 0.721241 0.947443
vt 0.731706 0.947443
vt 0.678434 0.733125
vt 0.673601 0.734416
vt 0.673324 0.726999
vt 0.678198 0.726816
vt 0.947915 0.622226
vt 0.952793 0.623335
vt 0.952793 0.629649
vt 0.947915 0.629649
vt 0.693399 0.994768
vt 0.682213 0.994768
vt 0.682213 0.988454
vt 0.693399 0.988454
vt 0.604684 0.814995
vt 0.615149 0.814995
vt 0.615149 0.822418
vt 0.604684 0.822418
vt 0.620214 0.808495
vt 0.620214 0.808495
vt 0.620275 0.812753
vt 0.620275 0.812753
vt 0.618665 0.812922
vt 0.618600 0.808372
vt 0.528732 0.811203
vt 0.527122 0.811372
vt 0.527057 0.806822
vt 0.528672 0.806945
vt 0.504528 0.941573
vt 0.506082 0.941515
vt 0.536633 0.726336
vt 0.537620 0.677356
vt 0.537620 0.677356
vt 0.729622 0.898677
vt 0.950475 0.457201
vt 0.950475 0.457201
vt 0.951842 0.457201
vt 0.918983 0.992196
vt 0.676201 0.678065
vt 0.677755 0.678007
vt 0.606654 0.871210
vt 0.951261 0.678440
vt 0.949893 0.678440
vt 0.691270 0.939662
vt 0.503947 0.938423
vt 0.505470 0.938366
vt 0.538446 0.674261
vt 0.538446 0.674261
vt 0.724771 0.895508
vt 0.728630 0.895508
vt 0.723779 0.898677
vt 0.950938 0.460371
vt 0.950938 0.460371
vt 0.952337 0.460371
vt 0.924168 0.995366
vt 0.920043 0.995366
vt 0.925229 0.992196
vt 0.675621 0.674915
vt 0.677143 0.674858
vt 0.611505 0.874379
vt 0.607647 0.874379
vt 0.612498 0.871210
vt 0.951756 0.681610
vt 0.950356 0.681610
vt 0.686084 0.936493
vt 0.690209 0.936493
vt 0.685024 0.939662
vn 0.0000 0.0000 1.0000
vn 0.6950 -0.4648 0.5485
vn 0.8103 -0.0000 0.5860
vn 0.3307 -0.8192 0.4687
vn 0.2504 -0.7707 0.5860
vn 0.4161 -0.7278 0.5452
vn -0.6950 -0.4648 0.5485
vn -0.2504 -0.7707 0.5860
vn -0.3307 -0.8192 0.4687
vn -0.4161 -0.7278 0.5452
vn -0.8103 -0.0000 0.5860
vn -0.6950 0.4648 0.5485
vn -0.3307 0.8191 0.4687
vn -0.2504 0.7706 0.5860
vn -0.4161 0.7278 0.5452
vn 0.6950 0.4648 0.5485
vn 0.2504 0.7706 0.5860
vn 0.3307 0.8191 0.4687
vn 0.4161 0.7278 0.5452
vn 0.0000 0.0000 -1.0000
vn -0.9973 0.0000 0.0737
vn -0.9971 0.0295 0.0697
vn -0.9968 0.0311 0.0736
vn 0.9973 0.0000 0.0737
vn 0.9965 0.0268 0.0787
vn 0.9969 0.0271 0.0737
vn 0.0191 0.0121 -0.9997
vn 0.0000 0.0157 -0.9999
vn -0.0178 0.0440 0.9989
vn 0.0000 0.0471 0.9989
vn 0.9972 -0.0283 0.0697
vn 0.9968 -0.0300 0.0736
vn -0.9965 -0.0279 0.0787
vn -0.9969 -0.0282 0.0736
vn -0.0190 -0.0119 -0.9997
vn 0.0000 -0.0155 -0.9999
vn 0.0178 -0.0441 0.9989
vn 0.0000 -0.0474 0.9989
vn 0.0000 0.7267 0.6870
vn 0.9763 0.0000 0.2164
vn 0.8669 0.0000 -0.4985
vn 0.0000 1.0000 0.0000
vn -0.0000 -1.0000 0.0000
vn -0.9420 0.1675 -0.2909
vn -0.9424 0.1750 -0.2850
vn 0.0425 0.9945 -0.0954
vn -0.3936 0.0142 0.9192
vn 0.4817 0.1056 0.8699
vn 0.8268 0.1780 0.5337
vn 0.3914 -0.0223 -0.9200
vn 0.9422 -0.1663 -0.2910
vn 0.9426 -0.1738 -0.2851
vn 0.3936 -0.0140 0.9192
vn -0.8266 -0.1790 0.5335
vn -0.8372 -0.1847 0.5148
vn -0.3914 0.0221 -0.9200
vn -0.8893 0.3391 -0.3069
vn -0.8830 0.3452 -0.3180
vn -0.4226 -0.0000 0.9063
vn -0.4226 0.0081 0.9063
vn 0.4712 0.1876 0.8618
vn 0.8094 0.3306 0.4853
vn 0.4226 -0.0000 -0.9063
vn 0.4224 -0.0288 -0.9059
vn 0.8893 -0.3391 -0.3069
vn 0.8830 -0.3452 -0.3180
vn 0.4226 0.0000 0.9063
vn 0.4226 -0.0078 0.9063
vn -0.8094 -0.3306 0.4853
vn -0.8173 -0.3254 0.4756
vn -0.4226 -0.0000 -0.9063
vn -0.4225 0.0284 -0.9059
usemtl Plane
s 1
f 1/1/1 2/2/2 3/3/3
f 4/4/4 5/5/5 2/6/2
f 6/7/6 4/4/4 2/6/2
f 1/8/1 6/7/6 2/6/2
f 7/9/7 8/10/8 9/11/9
f 7/9/7 9/11/9 10/12/10
f 1/13/1 7/9/7 10/12/10
f 1/14/1 11/15/11 7/16/7
f 1/14/1 12/17/12 11/15/11
f 13/18/13 14/19/14 12/20/12
f 15/21/15 13/18/13 12/20/12
f 1/22/1 15/21/15 12/20/12
f 16/23/16 17/24/17 18/25/18
f 16/23/16 18/25/18 19/26/19
f 1/27/1 16/23/16 19/26/19
f 1/1/1 3/3/3 16/28/16
f 2/29/20 5/30/20 8/31/20
f 8/31/20 7/32/20 11/33/20
f 11/33/20 12/34/20 14/35/20
f 14/35/20 17/36/20 16/37/20
f 11/33/20 14/35/20 16/37/20
f 8/31/20 11/33/20 16/37/20
f 2/29/20 8/31/20 16/37/20
f 3/38/20 2/29/20 16/37/20
f 17/39/17 14/40/14 13/41/13
f 13/41/13 18/42/18 17/39/17
f 15/43/15 1/44/1 19/45/19
f 8/46/8 5/47/5 4/48/4
f 4/48/4 9/49/9 8/46/8
f 6/50/6 1/51/1 10/52/10
f 13/53/21 15/54/21 20/55/22
f 20/55/22 21/56/23 13/53/21
f 19/57/24 18/58/24 22/59/25
f 22/59/25 23/60/26 19/57/24
f 18/61/20 13/62/20 21/63/27
f 21/63/27 22/64/28 18/61/20
f 15/65/1 19/66/1 23/67/29
f 23/67/29 20/68/30 15/65/1
f 4/69/24 6/70/24 24/71/31
f 24/71/31 25/72/32 4/69/24
f 10/73/21 9/74/21 26/75/33
f 26/75/33 27/76/34 10/73/21
f 9/77/20 4/78/20 25/79/35
f 25/79/35 26/80/36 9/77/20
f 6/81/1 10/82/1 27/83/37
f 27/83/37 24/84/38 6/81/1
f 28/85/39 29/86/40 30/87/39
f 30/87/39 31/88/41 32/89/42
f 28/85/39 30/87/39 32/89/42
f 28/85/39 32/89/42 33/90/42
f 34/91/43 35/92/43 36/93/43
f 36/93/43 37/94/43 34/91/43
f 20/55/22 38/95/44 39/96/45
f 39/96/45 21/56/23 20/55/22
f 20/97/46 40/98/1 38/99/1
f 20/68/30 23/67/29 40/100/47
f 23/60/26 41/101/48 42/102/1
f 22/59/25 43/103/49 41/101/48
f 41/101/48 23/60/26 22/59/25
f 22/64/28 21/63/27 43/104/50
f 24/71/31 44/105/51 45/106/52
f 45/106/52 25/72/32 24/71/31
f 24/84/38 27/83/37 44/107/53
f 26/75/33 46/108/54 47/109/55
f 47/109/55 27/76/34 26/75/33
f 26/80/36 25/79/35 46/110/56
f 28/111/57 33/112/58 39/96/45
f 39/96/45 38/95/44 28/111/57
f 28/113/1 38/99/1 40/98/1
f 40/98/1 29/114/1 28/113/1
f 30/115/59 29/116/59 40/100/47
f 40/100/47 42/117/60 30/115/59
f 30/118/1 42/102/1 41/101/48
f 41/101/48 31/119/61 30/118/1
f 32/120/62 31/119/61 41/101/48
f 41/101/48 43/103/49 32/120/62
f 33/121/63 32/122/63 43/104/50
f 43/104/50 39/123/64 33/121/63
f 37/124/65 36/125/66 45/106/52
f 45/106/52 44/105/51 37/124/65
f 34/126/67 37/127/67 44/107/53
f 44/107/53 47/128/68 34/126/67
f 35/129/69 34/130/70 47/109/55
f 47/109/55 46/108/54 35/129/69
f 36/131/71 35/132/71 46/110/56
f 46/110/56 45/133/72 36/131/71
f 27/83/37 47/128/68 44/107/53
f 21/63/27 39/123/64 43/104/50
f 23/67/29 42/117/60 40/100/47
f 25/79/35 45/133/72 46/110/56
