# Blender 3.1.2
# www.blender.org
mtllib untitled.mtl
o cube1
v 2.000000 2.000000 2.000000
v -2.000000 2.000000 2.000000
v -2.000000 -0.000000 2.000000
v 2.000000 -0.000000 2.000000
v -2.000000 0.000000 -2.000000
v -2.000000 2.000000 -2.000000
v 2.000000 2.000000 -2.000000
v 2.000000 0.000000 -2.000000
vn -0.5774 0.5774 0.5774
vn 0.5725 -0.5870 0.5725
vn 0.5774 0.5774 0.5774
vn -0.5725 -0.5870 0.5725
vn -0.5774 0.5774 -0.5774
vn -0.5725 -0.5870 -0.5725
vn 0.5774 0.5774 -0.5774
vn 0.5725 -0.5870 -0.5725
vt 0.750000 0.750000
vt 0.250000 0.750000
vt 0.250000 1.000000
vt 0.000000 0.750000
vt 0.750000 1.000000
vt 1.000000 0.750000
vt 0.000000 0.250000
vt 0.250000 0.000000
vt 0.250000 0.250000
vt 0.750000 0.250000
vt 0.750000 0.000000
vt 1.000000 0.250000
s 1
usemtl default
f 2/2/1 4/5/2 1/1/3
f 3/4/4 6/9/5 5/7/6
f 2/2/1 7/10/7 6/9/5
f 1/1/3 8/12/8 7/10/7
f 5/8/6 7/10/7 8/11/8
f 2/2/1 3/3/4 4/5/2
f 3/4/4 2/2/1 6/9/5
f 2/2/1 1/1/3 7/10/7
f 1/1/3 4/6/2 8/12/8
f 5/8/6 6/9/5 7/10/7
